<svg xmlns="http://www.w3.org/2000/svg" viewBox="0 0 512 512" role="img" aria-label="Dish Directory icon">
  <defs>
    <linearGradient id="dish-gradient" x1="50%" x2="50%" y1="0%" y2="100%">
      <stop offset="0%" stop-color="#ff8a00" />
      <stop offset="100%" stop-color="#da1b60" />
    </linearGradient>
  </defs>
  <rect x="32" y="32" width="448" height="448" rx="120" fill="none" stroke="url(#dish-gradient)" stroke-width="48" />
  <path fill="url(#dish-gradient)" d="M256 124c-40.5 0-76.6 22.4-95.7 58.5-2.4 4.6-.7 10.2 3.9 12.6 4.6 2.4 10.2.7 12.6-3.9 15.4-29.5 45.8-47.2 79.2-47.2 49.3 0 89.4 40.1 89.4 89.4 0 34.6-19.9 65.6-50.2 80.4-4.7 2.3-6.7 7.9-4.4 12.6s7.9 6.7 12.6 4.4c38.5-18.9 63.3-58 63.3-97.4C366.7 176 316.6 124 256 124z" />
  <path fill="url(#dish-gradient)" d="M211.5 226.4c-4.9-1.4-10 1.5-11.4 6.4-6.5 22.4-2.2 46.3 11.5 65.4 13.8 19.3 35.5 31 59.4 31 40 0 72.6-32.6 72.6-72.6 0-22.4-10.1-43.6-27.8-57.5-4.1-3.3-10.1-2.6-13.4 1.5-3.3 4.1-2.6 10.1 1.5 13.4 13.2 10.5 20.7 26.2 20.7 42.6 0 29-23.6 52.6-52.6 52.6-17 0-32.9-8.2-42.8-22.1-9.8-13.7-12.8-31-8-47.2 1.4-4.9-1.5-10-6.4-11.4z" />
</svg>
