<svg width="150" height="150" viewBox="0 0 150 150" fill="none" xmlns="http://www.w3.org/2000/svg">
<g clip-path="url(#clip0_105_2)">
<path d="M125.158 126.7C125.158 126.7 122.958 103.9 119.458 98.2C115.958 92.5 106.658 90.1 106.658 90.1L94.9576 126.7H125.158Z" fill="#FDBA74"/>
<path d="M106.697 90.1C106.697 90.1 101.497 92.7 97.4972 90.1C93.4972 87.5 90.5972 80.1 90.5972 80.1L82.1972 83.1L94.9972 126.7L106.697 90.1Z" fill="#FDBA74"/>
<path d="M60.6972 100.9C60.6972 100.9 63.6972 126.7 82.1972 126.7H94.9972L82.1972 83.1C82.1972 83.1 71.9972 83.3 67.5972 88.5C63.1972 93.7 60.6972 100.9 60.6972 100.9Z" fill="#FDBA74"/>
<path d="M90.5972 80.1C90.5972 80.1 88.1972 73.1 82.1972 83.1L60.6972 100.9L63.6972 126.7H82.1972L94.9972 126.7L82.1972 83.1" fill="#FDBA74"/>
<path d="M86.3972 140.2C86.3972 140.2 87.5972 126.7 82.1972 126.7H63.6972L60.6972 100.9L55.8972 104.9C55.8972 104.9 56.6972 122.9 62.4972 131.7C68.2972 140.5 86.3972 140.2 86.3972 140.2Z" fill="#3F3F46"/>
<path d="M128.097 140.2C128.097 140.2 125.197 126.7 119.497 126.7H94.9972L98.5972 135.2L116.897 135.5C116.897 135.5 120.597 136.2 122.697 138.1C124.797 140 128.097 140.2 128.097 140.2Z" fill="#3F3F46"/>
<g filter="url(#filter0_d_105_2)">
<path d="M92.7972 63.8C92.7972 63.8 91.5972 58.7 89.1972 56.9C86.7972 55.1 81.3972 56.9 81.3972 56.9C81.3972 56.9 77.0972 59.9 81.3972 65C85.6972 70.1 92.7972 63.8 92.7972 63.8Z" fill="#A3E635"/>
</g>
<g filter="url(#filter1_d_105_2)">
<path d="M92.7972 63.8C94.5972 67.5 94.9972 75.3 94.9972 75.3C94.9972 75.3 97.4972 73.1 97.4972 70.1C97.4972 67.1 92.7972 63.8 92.7972 63.8Z" fill="#A3E635"/>
</g>
<path d="M97.5 70.1C97.5 70.1 94.9 61.8 90.6 65C86.3 68.2 81.4 65 81.4 65C81.4 65 77.1 59.9 81.4 56.9C85.7 53.9 92.8 55.1 92.8 55.1C92.8 55.1 96.3 56.1 95 60.3C93.7 64.5 90.6 65 90.6 65" fill="#FDBA74"/>
<path d="M92.7972 55.1C91.5972 58.7 86.7972 55.1 86.7972 55.1L81.3972 56.9C81.3972 56.9 77.0972 59.9 81.3972 65C85.6972 70.1 92.7972 63.8 92.7972 63.8C92.7972 63.8 94.5972 56.8 92.7972 55.1Z" fill="#FBBF24"/>
<path d="M90.5972 80.1C90.5972 80.1 88.1972 73.1 82.1972 83.1C82.1972 83.1 80.0972 80.3 80.9972 75.3C81.8972 70.3 90.5972 80.1 90.5972 80.1Z" fill="#FDBA74"/>
<path d="M94.9972 75.3C94.9972 75.3 91.8972 70.8 88.1972 73.1C84.4972 75.4 82.1972 83.1 82.1972 83.1L90.5972 80.1C90.5972 80.1 95.8972 81.4 97.4972 77.5C99.0972 73.6 94.9972 75.3 94.9972 75.3Z" fill="#FB923C"/>
<path d="M80.9972 75.3C80.9972 75.3 75.3972 71.9 75.3972 77.5C75.3972 83.1 80.9972 75.3 80.9972 75.3Z" fill="#FB923C"/>
<path d="M75.3972 77.5C75.3972 77.5 73.5972 71.5 69.3972 75.3C65.1972 79.1 66.8972 86.1 66.8972 86.1C66.8972 86.1 67.8972 78.4 75.3972 77.5Z" fill="#FDBA74"/>
<path d="M82.1972 50.9C82.1972 50.9 85.3972 41.4 94.9972 44.4C104.597 47.4 100.997 55.4 100.997 55.4L92.7972 55.1L94.9972 44.4C94.9972 44.4 92.7972 42.9 89.1972 44.4C85.5972 45.9 82.1972 50.9 82.1972 50.9Z" fill="#3F3F46"/>
<path d="M97.4972 70.1C97.4972 70.1 94.9972 61.8 90.5972 65C86.2972 68.2 81.3972 65 81.3972 65C81.3972 65 77.0972 59.9 81.3972 56.9C85.6972 53.9 92.7972 55.1 92.7972 55.1C92.7972 55.1 96.2972 56.1 94.9972 60.3C93.6972 64.5 90.5972 65 90.5972 65" fill="#FDBA74"/>
<path d="M92.8 55.1C91.6 58.7 86.8 55.1 86.8 55.1L81.4 56.9C81.4 56.9 77.1 59.9 81.4 65C85.7 70.1 92.8 63.8 92.8 63.8C92.8 63.8 94.6 56.8 92.8 55.1Z" fill="#FB923C"/>
<path d="M90.6 80.1C90.6 80.1 88.2 73.1 82.2 83.1C82.2 83.1 80.1 80.3 81 75.3C81.9 70.3 90.6 80.1 90.6 80.1Z" fill="#FDBA74"/>
<path d="M95 75.3C95 75.3 91.9 70.8 88.2 73.1C84.5 75.4 82.2 83.1 82.2 83.1L90.6 80.1C90.6 80.1 95.9 81.4 97.5 77.5C99.1 73.6 95 75.3 95 75.3Z" fill="#F59E0B"/>
<path d="M81 75.3C81 75.3 75.4 71.9 75.4 77.5C75.4 83.1 81 75.3 81 75.3Z" fill="#F59E0B"/>
<path d="M75.4 77.5C75.4 77.5 73.6 71.5 69.4 75.3C65.2 79.1 66.9 86.1 66.9 86.1C66.9 86.1 67.9 78.4 75.4 77.5Z" fill="#FDBA74"/>
<path d="M82.2 50.9C82.2 50.9 85.4 41.4 95 44.4C104.6 47.4 101 55.4 101 55.4L92.8 55.1L95 44.4C95 44.4 92.8 42.9 89.2 44.4C85.6 45.9 82.2 50.9 82.2 50.9Z" fill="#3F3F46"/>
<path d="M97.5 70.1C97.5 70.1 101 70.1 101 75.3C101 80.5 97.5 83.1 97.5 83.1" stroke="#EAB308" stroke-width="1.2"/>
<path d="M94.9972 126.7L82.1972 83.1C82.1972 83.1 71.9972 83.3 67.5972 88.5C63.1972 93.7 60.6972 100.9 60.6972 100.9L63.6972 126.7H82.1972L94.9972 126.7Z" fill="#F59E0B"/>
<path d="M106.697 90.1L94.9972 126.7H125.197L122.997 103.9C122.997 103.9 121.797 93.7 115.097 90.1C108.397 86.5 106.697 90.1 106.697 90.1Z" fill="#F59E0B"/>
<path d="M66.9 86.1C66.9 86.1 68.5 94.6 75.4 96.5C82.3 98.4 82.2 83.1 82.2 83.1" stroke="#EAB308" stroke-width="1.2"/>
<path d="M106.7 90.1C106.7 90.1 101.5 92.7 97.5 90.1C93.5 87.5 90.6 80.1 90.6 80.1M90.6 80.1C90.6 80.1 88.2 73.1 82.2 83.1M90.6 80.1L82.2 83.1M82.2 83.1L95 126.7H106.7L101 99.4C101 99.4 100.2 92.7 97.5 90.1C94.8 87.5 90.6 80.1 90.6 80.1" stroke="#EAB308" stroke-width="1.2"/>
<path d="M91.8 45.6C91.8 45.6 95 44.4 95 48.2C95 52 91.8 53.9 91.8 53.9" stroke="#EAB308" stroke-width="1.2"/>
<path d="M78.9972 35.5C78.9972 35.5 86.4972 24.3 100.997 27.3C115.497 30.3 106.997 45.9 106.997 45.9C106.997 45.9 113.897 41.5 113.897 34.4C113.897 27.3 100.997 19.5 100.997 19.5C100.997 19.5 89.8972 24.7 78.9972 35.5Z" stroke="#EAB308" stroke-width="1.2" stroke-linecap="round"/>
<path d="M85.4972 35.5C85.4972 35.5 89.1972 29.8 97.8972 31.4C106.597 33 102.197 40.5 102.197 40.5C102.197 40.5 106.697 37.7 106.697 33C106.697 28.3 97.8972 25.1 97.8972 25.1C97.8972 25.1 90.8972 28.2 85.4972 35.5Z" stroke="#EAB308" stroke-width="1.2" stroke-linecap="round"/>
<path d="M82.1972 50.9L95.0972 44.4" stroke="#EAB308" stroke-width="1.2"/>
<path d="M82.1972 83.1L60.6972 100.9" stroke="#EAB308" stroke-width="1.2"/>
<path d="M60.6972 100.9L63.6972 126.7" stroke="#EAB308" stroke-width="1.2"/>
<path d="M125.197 126.7L122.997 103.9" stroke="#EAB308" stroke-width="1.2"/>
<path d="M86.3972 140.2L62.4972 131.7" stroke="#EAB308" stroke-width="1.2"/>
<path d="M62.4972 131.7L55.8972 104.9" stroke="#EAB308" stroke-width="1.2"/>
<path d="M98.5972 135.2L94.9972 126.7" stroke="#EAB308" stroke-width="1.2"/>
<path d="M128.097 140.2L116.897 135.5" stroke="#EAB308" stroke-width="1.2"/>
<path d="M116.897 135.5L98.5972 135.2" stroke="#EAB308" stroke-width="1.2"/>
</g>
<defs>
<filter id="filter0_d_105_2" x="77.3972" y="55.1" width="19.4" height="13.9" filterUnits="userSpaceOnUse" color-interpolation-filters="sRGB">
<feFlood flood-opacity="0" result="BackgroundImageFix"/>
<feColorMatrix in="SourceAlpha" type="matrix" values="0 0 0 0 0 0 0 0 0 0 0 0 0 0 0 0 0 0 127 0" result="hardAlpha"/>
<feOffset dy="4"/>
<feGaussianBlur stdDeviation="2"/>
<feComposite in2="hardAlpha" operator="out"/>
<feColorMatrix type="matrix" values="0 0 0 0 0 0 0 0 0 0 0 0 0 0 0 0 0 0 0.25 0"/>
<feBlend mode="normal" in2="BackgroundImageFix" result="effect1_dropShadow_105_2"/>
<feBlend mode="normal" in="SourceGraphic" in2="effect1_dropShadow_105_2" result="shape"/>
</filter>
<filter id="filter1_d_105_2" x="88.7972" y="63.8" width="12.7" height="15.5" filterUnits="userSpaceOnUse" color-interpolation-filters="sRGB">
<feFlood flood-opacity="0" result="BackgroundImageFix"/>
<feColorMatrix in="SourceAlpha" type="matrix" values="0 0 0 0 0 0 0 0 0 0 0 0 0 0 0 0 0 0 127 0" result="hardAlpha"/>
<feOffset dy="4"/>
<feGaussianBlur stdDeviation="2"/>
<feComposite in2="hardAlpha" operator="out"/>
<feColorMatrix type="matrix" values="0 0 0 0 0 0 0 0 0 0 0 0 0 0 0 0 0 0 0.25 0"/>
<feBlend mode="normal" in2="BackgroundImageFix" result="effect1_dropShadow_105_2"/>
<feBlend mode="normal" in="SourceGraphic" in2="effect1_dropShadow_105_2" result="shape"/>
</filter>
<clipPath id="clip0_105_2">
<rect width="150" height="150" fill="white"/>
</clipPath>
</defs>
</svg>